<?xml version="1.0" encoding="UTF-8"?>
<svg id="Laag_2" data-name="Laag 2" xmlns="http://www.w3.org/2000/svg" viewBox="0 0 202.56 84.83">
  <defs>
    <style>
      .cls-1 {
        stroke-width: 0px;
      }

      .cls-1, .cls-2 {
        fill: #000;
      }

      .cls-2 {
        stroke: #000;
        stroke-miterlimit: 10;
        stroke-width: .5px;
      }
    </style>
  </defs>
  <g id="Laag_1-2" data-name="Laag 1">
    <g>
      <path class="cls-1" d="M1.03,52.49C.32,49.78-.02,47.04,0,44.27c.02-2.77.3-5.51.84-8.21.92-4.83,2.56-9.47,4.93-13.93,1.12-2.12,2.39-4.17,3.81-6.15,1.42-1.98,3-3.78,4.75-5.4,1.79-1.71,3.77-3.18,5.93-4.43,2.16-1.25,4.42-2.23,6.78-2.94,2.35-.71,4.77-1.16,7.24-1.34,2.48-.19,4.94-.07,7.4.34,1.17.21,2.3.52,3.4.94,1.1.42,2.12.95,3.06,1.59.94.65,1.78,1.41,2.53,2.28s1.33,1.9,1.75,3.06c.83,2.25.98,4.55.44,6.9-.54,2.35-1.5,4.47-2.87,6.34-1.37,1.87-3.04,3.47-5,4.78-1.96,1.31-4.02,2.36-6.18,3.15-.71.29-1.48.57-2.31.84-.83.27-1.65.37-2.44.28-.87-.08-1.63-.45-2.28-1.09-.65-.65-1.03-1.41-1.16-2.28-.12-.92.04-1.77.5-2.56.46-.79,1.1-1.35,1.94-1.69.67-.29,1.35-.53,2.06-.72.71-.19,1.42-.43,2.12-.72,1-.37,2.01-.84,3.03-1.41,1.02-.56,1.97-1.21,2.84-1.94.87-.73,1.63-1.55,2.28-2.47.65-.92,1.09-1.94,1.34-3.06.25-1.17.25-2.3,0-3.4-.25-1.1-.69-2.1-1.31-3-.62-.89-1.4-1.68-2.31-2.34-.92-.67-1.94-1.17-3.06-1.5-2.33-.67-4.71-.72-7.12-.16-2.42.56-4.6,1.49-6.56,2.78-2,1.29-3.79,2.84-5.37,4.65-1.58,1.81-3.02,3.72-4.31,5.71-1.33,2.04-2.49,4.15-3.47,6.34-.98,2.19-1.8,4.47-2.47,6.84-.67,2.42-1.17,4.86-1.5,7.34-.33,2.48-.46,4.97-.37,7.46.08,2.33.43,4.67,1.03,7.03.6,2.35,1.63,4.47,3.09,6.34,1.42,1.75,3.12,2.95,5.12,3.59,2,.65,4.08,1.01,6.25,1.09,2.41.08,4.78-.11,7.09-.59,2.31-.48,4.55-1.26,6.71-2.34,1-.5,2.05-1.14,3.15-1.94,1.1-.79,2.16-1.65,3.19-2.59,1.02-.94,1.97-1.9,2.84-2.9.87-1,1.6-2,2.19-3,.21-.33.46-.64.75-.94.29-.29.67-.27,1.12.06.29.21.43.47.41.78-.02.31-.12.62-.28.91-.29.46-.66.99-1.09,1.59-.44.6-.91,1.2-1.41,1.78-.5.58-1.01,1.16-1.53,1.72-.52.56-.97,1.03-1.34,1.41-3.16,3.25-6.87,5.71-11.12,7.4s-8.62,2.7-13.12,3.03c-2.33.21-4.64.05-6.93-.47-2.29-.52-4.39-1.47-6.31-2.84-2-1.42-3.63-3.15-4.9-5.21-1.27-2.06-2.2-4.26-2.78-6.59Z"/>
      <path class="cls-1" d="M49.5,68.72c-1.54-.42-2.54-1.35-3-2.81-.17-.5-.23-1-.19-1.5.04-.5.1-1.02.19-1.56.08-.83.2-1.69.34-2.56.15-.87.3-1.73.47-2.56,1.08-6.12,2.33-12.16,3.75-18.11,1.04-4.41,2.13-8.8,3.28-13.15,1.14-4.35,2.51-8.65,4.09-12.9.79-2.16,1.76-4.28,2.9-6.34,1.14-2.06,2.63-3.82,4.47-5.28.71-.58,1.52-1.07,2.44-1.47.92-.4,1.85-.55,2.81-.47,1.21.12,2.05.65,2.53,1.56.48.92.72,1.92.72,3,.04,2-.2,3.96-.72,5.87-.52,1.92-1.07,3.81-1.65,5.68-.71,2.12-1.47,4.21-2.28,6.25-.81,2.04-1.74,4.06-2.78,6.06-1.12,2.17-2.28,4.32-3.47,6.46-1.19,2.15-2.24,4.36-3.15,6.65-.54,1.33-.94,2.7-1.19,4.09-.25,1.4-.54,2.76-.87,4.09.87-2,1.82-3.92,2.84-5.78,1.02-1.85,2.11-3.7,3.28-5.53.62-1,1.29-1.97,2-2.9.71-.94,1.48-1.79,2.31-2.56.83-.77,1.76-1.43,2.78-1.97,1.02-.54,2.13-.89,3.34-1.06.83-.12,1.66-.13,2.5-.03.83.1,1.6.38,2.31.84.92.58,1.62,1.34,2.12,2.28.5.94.81,1.95.94,3.03.12,1.17.08,2.32-.12,3.47-.21,1.15-.5,2.29-.87,3.43-.38,1.15-.8,2.27-1.28,3.37-.48,1.1-.93,2.18-1.34,3.22l-2.87,6.68c-.42,1-.82,2.03-1.22,3.09-.4,1.06-.64,2.13-.72,3.22,1.08-.21,2.08-.67,3-1.37.92-.71,1.77-1.42,2.56-2.12.87-.75,1.72-1.54,2.53-2.37s1.59-1.69,2.34-2.56c1.08-1.25,2.12-2.48,3.12-3.68.21-.25.48-.38.81-.38s.52.21.56.62c.04.29-.04.59-.25.91-.21.31-.37.57-.5.78-1.08,2.17-2.3,4.28-3.65,6.34-1.35,2.06-2.9,3.95-4.65,5.65-.62.62-1.4,1.25-2.31,1.87-.92.62-1.85,1.08-2.81,1.37-.96.29-1.9.35-2.84.19-.94-.17-1.78-.71-2.53-1.62-.71-.83-1.11-1.81-1.22-2.94-.1-1.12-.12-2.21-.03-3.25.08-1.21.25-2.39.5-3.56.25-1.17.54-2.33.87-3.5.58-2.37,1.22-4.7,1.9-7,.69-2.29,1.26-4.62,1.72-7-2.12.62-3.97,1.69-5.53,3.19-1.56,1.5-2.99,3.12-4.28,4.87-1.33,1.83-2.57,3.71-3.72,5.62-1.15,1.92-2.2,3.89-3.15,5.93-.29.62-.54,1.21-.75,1.75-.21.54-.38,1.15-.5,1.81l-.62,2.37c-.12.5-.26,1-.41,1.5-.15.5-.39.96-.72,1.37-.5.58-1.12,1.01-1.87,1.28-.75.27-1.5.3-2.25.09ZM63.24,26.32c1.42-1.83,2.64-3.76,3.69-5.78,1.04-2.02,1.98-4.09,2.81-6.21.33-.83.63-1.67.91-2.5.27-.83.51-1.69.72-2.56.25-1.12.35-2.21.31-3.25,0-.58-.08-1.1-.25-1.56,0-.04-.07-.22-.22-.53-.15-.31-.26-.43-.34-.34,0,.04.03.08.09.12.06.04.05.08-.03.12-.37.25-.69.56-.94.94-.37.5-.7,1.04-.97,1.62-.27.58-.51,1.17-.72,1.75l-1.81,5.12c-.54,1.58-1.01,3.2-1.41,4.84-.4,1.65-.76,3.3-1.09,4.97l-.75,3.25Z"/>
      <path class="cls-1" d="M87.22,61.42c-.33-2.25-.34-4.51-.03-6.78.31-2.27.72-4.49,1.22-6.65.5-2.25,1.07-4.46,1.72-6.62.65-2.16,1.34-4.31,2.09-6.43.25-.71.51-1.41.78-2.09.27-.69.72-1.26,1.34-1.72.71-.58,1.5-.91,2.37-.97.87-.06,1.71.14,2.5.59.75.46,1.32,1.08,1.72,1.87.4.79.53,1.62.41,2.5-.08.58-.25,1.13-.5,1.66-.25.52-.48,1.03-.69,1.53-1,2.33-1.95,4.66-2.84,7-.9,2.33-1.7,4.68-2.4,7.06-.33,1.17-.65,2.34-.94,3.53-.29,1.19-.48,2.38-.56,3.59,0,.17-.02.44-.06.81-.04.38-.04.75,0,1.12.04.38.11.7.22.97.1.27.3.39.59.34.38.04.78-.08,1.22-.38.44-.29.82-.54,1.16-.75.46-.33.9-.68,1.31-1.03.42-.35.83-.74,1.25-1.16.96-.88,1.84-1.79,2.65-2.75.81-.96,1.63-1.92,2.47-2.87l2.06-2.62c.21-.25.4-.5.56-.75.17-.25.35-.48.56-.69.33-.33.72-.37,1.16-.12.44.25.59.6.47,1.06-.08.33-.21.65-.37.94-.17.29-.31.56-.44.81-1.04,2.08-2.21,4.12-3.5,6.12-.62,1.04-1.29,2.05-2,3.03-.71.98-1.48,1.91-2.31,2.78-.71.79-1.5,1.53-2.37,2.22-.87.69-1.85,1.13-2.94,1.34-.83.21-1.71.24-2.62.09-.92-.15-1.73-.49-2.44-1.03-.87-.67-1.52-1.49-1.94-2.47s-.71-2.01-.87-3.09ZM103.96,22.07c-.75,0-1.46-.15-2.12-.44-.67-.29-1.25-.69-1.75-1.19-.5-.5-.9-1.08-1.19-1.75-.29-.67-.44-1.37-.44-2.12s.15-1.46.44-2.12c.29-.67.69-1.25,1.19-1.75.5-.5,1.08-.89,1.75-1.19.67-.29,1.37-.44,2.12-.44s1.46.15,2.12.44c.67.29,1.25.69,1.75,1.19.5.5.89,1.08,1.19,1.75.29.67.44,1.37.44,2.12s-.15,1.46-.44,2.12c-.29.67-.69,1.25-1.19,1.75-.5.5-1.08.9-1.75,1.19-.67.29-1.37.44-2.12.44Z"/>
      <path class="cls-1" d="M107.14,60.98c-.46-1.29-.73-2.61-.81-3.97-.08-1.35-.03-2.71.16-4.06.19-1.35.5-2.7.94-4.03.44-1.33.95-2.6,1.53-3.81,1.17-2.37,2.58-4.58,4.25-6.62,1.66-2.04,3.64-3.73,5.93-5.06.92-.58,1.91-1.07,3-1.47,1.08-.4,2.18-.63,3.28-.72,1.1-.08,2.19.02,3.25.31,1.06.29,2.05.83,2.97,1.62.92.79,1.62,1.7,2.12,2.72.5,1.02.83,2.09,1,3.22.17,1.12.17,2.27,0,3.44-.17,1.17-.46,2.27-.87,3.31-.79,2.25-2.04,4.21-3.75,5.87-.75.71-1.56,1.28-2.44,1.72s-1.81.76-2.81.97c-1.12.29-2.26.43-3.4.41-1.15-.02-2.25-.2-3.31-.53-1.06-.33-2.03-.83-2.9-1.5-.87-.67-1.62-1.52-2.25-2.56,0,.75.03,1.52.09,2.31.06.79.19,1.58.37,2.37s.45,1.54.78,2.25c.33.71.77,1.33,1.31,1.87.54.54,1.17.97,1.87,1.28.71.31,1.46.53,2.25.66.79.12,1.59.18,2.4.16.81-.02,1.57-.07,2.28-.16,1.75-.21,3.39-.66,4.93-1.34,1.54-.69,3.04-1.49,4.5-2.4,1.37-.87,2.7-1.82,3.97-2.84,1.27-1.02,2.51-2.07,3.72-3.15.21-.21.41-.42.59-.62.19-.21.38-.42.59-.62.33-.33.71-.37,1.12-.12.42.25.54.6.37,1.06-.08.21-.2.41-.34.59-.15.19-.28.39-.41.59-.33.46-.69.93-1.06,1.41-.38.48-.75.95-1.12,1.41-1.54,1.87-3.18,3.64-4.9,5.31-1.73,1.67-3.59,3.19-5.59,4.56-1.96,1.33-4.05,2.47-6.28,3.4-2.23.94-4.57,1.26-7.03.97-2.37-.25-4.48-1.12-6.31-2.59-1.83-1.48-3.17-3.34-4-5.59ZM115.01,42.18c-.92,1.79-1.54,3.73-1.87,5.81.71.5,1.46.92,2.25,1.25.79.33,1.6.52,2.44.56,1.04.08,2.04-.06,3-.44.96-.38,1.85-.83,2.69-1.37.5-.33.93-.74,1.28-1.22.35-.48.66-1.01.91-1.59.83-1.75,1.14-3.64.94-5.68-.04-.33-.09-.68-.16-1.03s-.22-.66-.47-.91c-.29-.29-.64-.5-1.03-.62-.4-.12-.8-.23-1.22-.31-.96-.17-1.87-.12-2.75.12-.87.25-1.69.65-2.44,1.19-.75.54-1.43,1.19-2.03,1.94-.6.75-1.11,1.52-1.53,2.31Z"/>
      <path class="cls-1" d="M139.81,84.71c-.08,0-.19-.02-.31-.06-.12-.04-.23-.08-.31-.12-.83-.33-1.49-.89-1.97-1.66-.48-.77-.68-1.59-.59-2.47.08-.75.19-1.5.31-2.25.12-.75.25-1.48.37-2.19l1.12-6.06c.92-4.54,1.88-9.04,2.9-13.52,1.02-4.48,2.07-8.98,3.15-13.52,1.25-5,2.56-9.99,3.93-14.99.71-2.46,1.42-4.89,2.12-7.31.71-2.41,1.48-4.81,2.31-7.18.75-2.08,1.67-4.08,2.75-6,1.08-1.92,2.46-3.6,4.12-5.06.75-.62,1.58-1.18,2.5-1.65.92-.48,1.89-.68,2.94-.59,1.08.08,1.89.51,2.44,1.28.54.77.85,1.66.94,2.65.08,1.17.03,2.34-.16,3.53-.19,1.19-.41,2.34-.66,3.47-.33,1.21-.68,2.39-1.03,3.56-.35,1.17-.74,2.33-1.16,3.5-.71,2.04-1.48,4.04-2.31,6-.83,1.96-1.77,3.89-2.81,5.81-1.17,2.17-2.33,4.33-3.5,6.5-1.17,2.17-2.17,4.41-3,6.75-.12.42-.26.81-.41,1.19-.15.38-.26.79-.34,1.25l-.81,3.62-1.69,7.5c1.33-1.46,2.77-2.81,4.31-4.06,1.54-1.25,3.21-2.29,5-3.12.33-.17.73-.24,1.19-.22.46.02.67.32.62.91-.08.38-.31.66-.69.84-.37.19-.69.38-.94.59-.75.5-1.46,1.05-2.12,1.66-.67.6-1.29,1.24-1.87,1.91-1.58,1.79-2.98,3.72-4.18,5.78-1.21,2.06-2.27,4.22-3.19,6.46-.33.79-.66,1.59-.97,2.4-.31.81-.57,1.66-.78,2.53-.08.42-.18.83-.28,1.25-.1.42-.22.83-.34,1.25-.21.83-.41,1.64-.59,2.44-.19.79-.39,1.6-.59,2.44-.08.54-.19,1.08-.31,1.62-.12.54-.33,1.04-.62,1.5-.46.79-1.1,1.35-1.94,1.69-.83.33-1.69.39-2.56.19ZM159.1,19.2c-.33,1.21-.64,2.44-.91,3.69-.27,1.25-.55,2.48-.84,3.68,1.37-1.75,2.57-3.58,3.59-5.5,1.02-1.92,1.95-3.89,2.78-5.93.37-.92.72-1.84,1.03-2.78.31-.94.59-1.88.84-2.84.25-1.04.37-2.12.37-3.25,0-.08-.01-.27-.03-.56-.02-.29-.06-.59-.12-.91-.06-.31-.15-.58-.25-.81-.1-.23-.24-.34-.41-.34v.12s.02.08.06.12c-.42.17-.75.48-1,.94-.25.46-.48.87-.69,1.25-.25.46-.47.94-.66,1.44-.19.5-.39,1-.59,1.5l-.94,2.69c-.46,1.25-.86,2.49-1.22,3.72-.35,1.23-.7,2.49-1.03,3.78Z"/>
    </g>
    <path class="cls-1" d="M158.04,53.27s5.61-5.54,6.33-.2c.27,2,1.09,3.92,2.61,5.25,1.33,1.17,3.3,2.31,6.17,2.91l.91-2.02s-7.45-.61-8.01-8.46-10.32,1.22-10.32,1.22"/>
    <g id="JACMOI">
      <path class="cls-2" d="M179.25,27.92c-2.73,4.11-4.97,8.5-6.88,13.08-.32.77-.3,1.37.37,2,.82.76,1.53,1.64,2.26,2.49.38.43,1.12.86.95,1.36-.21.62-1.08.4-1.67.52-.49.1-.98.18-1.47.25-2.54.37-2.62.38-2.36,2.9.27,2.57,1.56,4.6,3.71,6.07.76.52,1.37.48,1.71-.5.61-1.77,1.39-3.47,2.11-5.19,1.72-4.09,3.36-8.23,5.03-12.34.36-.88.74-1.76,1.1-2.64.18-.45.45-.67.96-.49.5.18.6.52.46.98-.1.32-.21.63-.32.94-2.28,6.47-4.57,12.93-6.84,19.4-.45,1.28-.26,1.55,1.08,1.61,2.99.13,5.38-1.08,7.36-3.27.64-.71.67-1.18-.02-1.87-1.1-1.11-2.1-2.32-3.33-3.7,1.91-.3,3.53-.63,5.17-.77,1.12-.09,1.58-.62,1.85-1.62,1.09-4,2.07-8.03,2.56-12.16.1-.88.19-1.76.27-2.65l2.38.16c-.42,5.8-1.6,11.49-3.39,17.1-.32.99-.76,1.41-1.82,1.31-.94-.09-1.89,0-3.11.02.98.82,1.72,1.53,2.55,2.1.76.52.76.99.27,1.7-2.8,4.09-6.65,5.98-11.6,5.62-.12,0-.25-.04-.37-.05-.03,0-.07.03-.3.16,1,.36,1.87.66,2.73.97.33.12.77.14.61.72-.14.51-.44.63-.92.58-1.07-.12-2.15-.18-3.22-.35-.72-.11-1.02.07-1.2.81-.42,1.73-.99,3.43-1.44,5.16-.21.79-.58,1.07-1.31.63-.59-.35-1.87-.07-1.3-1.51.66-1.66,1.18-3.37,1.82-5.04.24-.64.17-.98-.54-1.19-.99-.3-1.96-.68-2.94-1.04-.3-.11-.66-.21-.52-.68.12-.39.3-.67.78-.62,1.18.12,2.36.21,3.59.32-.15-.58-.63-.64-.94-.88-3.89-2.88-5.66-6.71-5.21-11.56.07-.78.3-1.19,1.21-1.11,1.02.09,2.06,0,3.4-.02-1.14-.94-1.99-1.66-2.86-2.35-.4-.31-.6-.59-.39-1.14,2.02-5.38,4.54-10.38,7.61-14.96l2.37.74Z"/>
    </g>
    <path class="cls-2" d="M178.11,24.58l-4.71,8.41,2.35.83s3.51-6.19,5.12-8.01l-2.76-1.23Z"/>
    <path class="cls-2" d="M180.86,25.81l4.2,9.6,7.95-2.82s.97-.72,0,2.36l-7.82,2.39-1.48-.52-4.48-8.9,1.61-2.11Z"/>
    <path class="cls-2" d="M172.17,41.93l7.14,5.78-8.93,1.06s-2.7-1.24-.85-1.77,3.88-.16,3.88-.16l1.51-.54s-3.51-2.58-3.67-3.35.91-1.01.91-1.01Z"/>
    <path class="cls-2" d="M191.67,48.63l-10.42-.26,7.71,7.21s1.44-.01.33-1.6-2.91-2.57-2.91-2.57l-.83-1.38s5.19.84,5.79.34.33-1.74.33-1.74Z"/>
    <path class="cls-2" d="M189.78,22.06c-1.65.42-3.29.9-4.94,1.32-1.42.36-2.84.4-4.21-.24-1.23-.56-2.18-2.04-2.07-3.25.02,0,.04,0,.05,0,.07.04.14.09.21.14,1.53,1.04,3.2,1.56,5.06,1.47,1.31-.06,2.57-.39,3.82-.76,3.21-.96,6.3-.92,9.15,1.09.21.15.34.09.53-.04,1.78-1.27,3.06-2.93,3.93-4.92.51-1.17.78-2.39.96-3.75-.97.36-1.87.65-2.73,1.01-1.81.76-3.48,1.74-4.67,3.36-.33.45-.62.67-1.19.44-.26-.1-.34-.1-.16-.36.16-.24.33-.47.47-.72,2.4-4.1,2.51-8.34,1.55-12.65-.07-.34-.18-.32-.43-.13-2.05,1.54-3.78,3.37-5.04,5.61-1.43,2.55-2.14,5.3-1.85,8.3.01.12-.03.24-.13.3-.29.17-.77.1-1.16.15-.01,0-.03-.01-.07-.03.33-2.01.59-4.03.09-6.06-.5-2.03-1.57-3.77-2.73-5.53-.77,1.18-1.28,2.39-1.65,3.66-.66,2.29-.61,4.54.55,6.69.42.79,1.08,1.37,1.85,1.98-1.37.16-2.57-.09-3.74-.57-1.74-.71-3.15-1.88-4.41-3.24-.35-.38-.38-.16-.54.4-.25.93-.4,1.89-.39,2.86,0,2.27.54,4.36,2.23,5.99.24.23.07.37-.03.51-.58.89-.66.72-1.14,1.65l1.79,1.99c.51-.96,1.1-1.87,1.71-2.78.12-.17.24-.19.43-.14,1.14.31,2.3.32,3.46.1.25-.05.35-.03.36.27.12,2.67,1.64,4.29,3.98,5.3,1,.43,2.06.66,3.13.79l1.22.32c.32.08.53.4.47.72-.06.38-.17.92-.32,1.52l1.9-.87c.16-.71,0,0,.09-.73.05-.37.15-.41.47-.27,1.32.61,2.26,1.56,2.82,2.91.22.54.3,1.12.48,1.73,2.26-2.04,3.22-4.51,2.83-7.45-.74-5.55-7.08-9.34-11.98-8.1ZM196.57,18.63c.67-2.79,3.07-3.04,3.07-3.04-.28,3.73-3.22,3.96-3.22,3.96.02-.22.05-.42.08-.61-.15-.14-.03-.23.07-.31ZM194.37,6.83c.76,7.09-3.57,10.33-3.57,10.33-1.01-6.02,3.57-10.33,3.57-10.33ZM184.95,17.45c-2.03-2.48-.7-7.65-.7-7.65,2.19,3.76.7,7.65.7,7.65ZM198.94,31.94c-2.09-1.56-4.51-2.04-7.04-2.26-.96-.08-1.89-.31-2.75-.8-1.2-.69-1.77-1.75-1.87-3.11-.03-.39.09-.59.47-.68.26-.06.51-.17.81-.28-.08,2.44,1.97,3.03,3.71,2.61-.26-.19-.53-.36-.76-.56-.57-.49-.76-1.17-.51-1.72.25-.56.84-.88,1.62-.76,2.57.37,4.53,1.67,5.84,3.91.61,1.05.87,2.19.8,3.4-.01.19,0,.5-.32.25Z"/>
  </g>
</svg>